<svg xmlns="http://www.w3.org/2000/svg" viewBox="0 0 512 512">
  <defs>
    <linearGradient id="bg" x1="0%" y1="0%" x2="100%" y2="100%">
      <stop offset="0%" stop-color="#FF6B35"/>
      <stop offset="100%" stop-color="#F7931E"/>
    </linearGradient>
  </defs>
  <rect width="512" height="512" rx="108" fill="url(#bg)"/>
  <path d="M168 100 L168 412 L228 412 L228 300 L300 300 C370 300 410 260 410 200 C410 140 370 100 300 100 Z M228 155 L290 155 C340 155 355 175 355 200 C355 225 340 248 290 248 L228 248 Z" fill="white"/>
  <circle cx="400" cy="90" r="45" fill="rgba(255,255,255,0.25)"/>
  <path d="M383 72 L383 95 C383 105 390 112 400 112 C410 112 417 105 417 95 L417 72 Z M375 72 L375 82 C375 82 378 82 380 80 L380 72 Z M420 72 L420 82 C420 82 422 82 425 80 L425 72 Z M393 112 L393 118 L407 118 L407 112" fill="white" transform="scale(0.9) translate(48, 8)"/>
</svg>
